<svg width="601" height="515" viewBox="0 0 601 515" fill="none" xmlns="http://www.w3.org/2000/svg">
<g clip-path="url(#clip0_332_1228)">
<path d="M311.534 432.535L329.135 427.349L323.999 445L329.135 462.601L311.534 457.465L293.883 462.601L299.068 445L293.883 427.349L311.534 432.535Z" fill="black" stroke="white" stroke-miterlimit="10"/>
</g>
<g clip-path="url(#clip1_332_1228)">
<path d="M125.482 345.509L156.958 362.659L125.482 379.947L108.264 411.354L91.0449 379.947L59.5689 362.659L91.0449 345.509L108.264 313.964L125.482 345.509Z" fill="black" stroke="white" stroke-miterlimit="10"/>
</g>
<path d="M346.121 201.187C414.56 238.937 473.293 278.935 512.926 313.077C532.745 330.151 547.768 345.742 556.841 358.842C561.379 365.393 564.411 371.297 565.823 376.433C567.234 381.568 567.015 385.89 565.115 389.333C563.215 392.777 559.677 395.268 554.582 396.813C549.484 398.359 542.872 398.943 534.911 398.6C518.991 397.913 497.789 393.524 472.775 385.868C422.755 370.558 357.592 342.216 289.153 304.465C220.714 266.715 161.98 226.717 122.347 192.575C102.528 175.501 87.5061 159.91 78.4325 146.81C73.8951 140.259 70.8616 134.355 69.4497 129.218C68.0386 124.084 68.2582 119.763 70.1576 116.319C72.0572 112.875 75.5957 110.384 80.691 108.839C85.7888 107.293 92.4015 106.709 100.363 107.052C116.283 107.739 137.484 112.128 162.498 119.784C212.518 135.094 277.681 163.436 346.121 201.187Z" stroke="black"/>
<path d="M325.89 237.861C394.33 275.611 453.063 315.609 492.695 349.751C512.515 366.825 527.537 382.416 536.611 395.516C541.148 402.066 544.181 407.971 545.593 413.107C547.004 418.241 546.784 422.563 544.884 426.007C542.985 429.451 539.447 431.942 534.352 433.487C529.254 435.033 522.642 435.617 514.681 435.274C498.76 434.587 477.559 430.198 452.544 422.542C402.524 407.232 337.362 378.89 268.923 341.139C200.483 303.389 141.749 263.391 102.117 229.249C82.2978 212.175 67.2757 196.584 58.2021 183.484C53.6647 176.933 50.6311 171.029 49.2193 165.892C47.8082 160.758 48.0277 156.437 49.9271 152.993C51.8267 149.549 55.3652 147.057 60.4606 145.512C65.5583 143.966 72.171 143.383 80.1323 143.726C96.0526 144.413 117.254 148.802 142.268 156.458C192.288 171.768 257.451 200.11 325.89 237.861Z" stroke="black"/>
<path d="M305.662 274.535C374.101 312.285 432.834 352.283 472.467 386.425C492.286 403.499 507.309 419.09 516.382 432.19C520.92 438.741 523.952 444.645 525.364 449.782C526.775 454.916 526.556 459.238 524.656 462.682C522.756 466.125 519.218 468.616 514.123 470.161C509.025 471.707 502.413 472.292 494.452 471.948C478.532 471.261 457.33 466.872 432.316 459.216C382.296 443.906 317.133 415.564 248.694 377.814C180.255 340.063 121.521 300.065 81.8883 265.923C62.0693 248.849 47.0471 233.258 37.9736 220.158C33.4362 213.608 30.4026 207.703 28.9908 202.566C27.5797 197.433 27.7992 193.111 29.6986 189.667C31.5982 186.223 35.1367 183.732 40.232 182.187C45.3298 180.641 51.9425 180.057 59.9038 180.4C75.8241 181.087 97.0254 185.476 122.039 193.132C172.06 208.442 237.222 236.784 305.662 274.535Z" stroke="black"/>
<circle cx="132.035" cy="104.5" r="15.5" fill="#B9FF66"/>
<circle cx="421.535" cy="435" r="10" fill="#B9FF66"/>
<circle cx="82.0352" cy="64.5" r="23.5" fill="black"/>
<path d="M306.507 383.59C300.203 385.744 292.999 381.475 290.493 374.071L251.494 259.81L274.282 252.015L313.32 366.433C315.826 373.758 312.772 381.436 306.507 383.59Z" fill="black"/>
<path d="M303.1 385C301.26 385 299.381 384.569 297.579 383.668C293.938 381.866 291.041 378.498 289.631 374.345L250.632 260.084C250.476 259.653 250.711 259.144 251.18 258.987L273.969 251.192C274.204 251.113 274.439 251.113 274.634 251.231C274.83 251.348 274.987 251.505 275.065 251.74L314.103 366.159C316.726 373.914 313.437 382.101 306.742 384.412C305.606 384.804 304.353 385 303.1 385ZM252.59 260.358L291.315 373.797C292.568 377.518 295.152 380.574 298.363 382.14C300.947 383.394 303.727 383.629 306.233 382.767C312.028 380.769 314.847 373.562 312.498 366.707L273.734 253.111L252.59 260.358Z" fill="black"/>
<path d="M270.249 153.382L196.519 205.988L167.819 235.798L156.542 255.736L156.503 255.892C154.271 259.339 155.563 267.291 159.753 275.399C163.864 283.39 169.659 288.953 173.731 289.266L173.614 289.344L195.266 291.695L235.792 285.231L321.816 254.443L428.749 272.775L429.493 272.814C402.633 267.8 366.375 231.88 340.023 181.076C313.711 130.31 305.332 80.132 316.883 55.376H316.843L270.836 152.128L270.249 153.382Z" fill="#B9FF66"/>
<path d="M447.264 270.603C473.692 256.873 468.582 194.629 435.85 131.577C403.119 68.5247 355.161 28.5412 328.734 42.2711C302.306 56.001 307.417 118.245 340.148 181.297C372.879 244.349 420.837 284.333 447.264 270.603Z" fill="white"/>
<path d="M435.641 274.185C424.129 274.185 410.269 267.761 395.35 255.266C375.029 238.266 355.099 212.06 339.241 181.428C315.239 135.05 305.332 87.4964 314.025 60.2726C316.922 51.1849 321.778 44.8392 328.395 41.4313C341.551 34.6939 360.072 40.4129 380.589 57.5698C400.91 74.57 420.84 100.775 436.698 131.407C460.74 177.786 470.646 225.339 461.914 252.563C459.017 261.651 454.162 267.996 447.544 271.404C443.981 273.284 439.987 274.185 435.641 274.185ZM340.376 40.4129C336.343 40.4129 332.585 41.2355 329.217 42.9982C322.992 46.171 318.45 52.2033 315.709 60.8601C307.134 87.6922 317.001 134.737 340.807 180.723C373.228 243.279 420.762 283.312 446.8 269.955C453.026 266.782 457.568 260.75 460.309 252.093C468.884 225.261 459.017 178.216 435.21 132.23C406.979 77.782 367.354 40.4129 340.376 40.4129Z" fill="black"/>
<path d="M435.641 274.185C424.129 274.185 410.269 267.761 395.35 255.266C375.029 238.265 355.099 212.06 339.241 181.428C315.239 135.05 305.332 87.4963 314.025 60.2725C316.922 51.1848 321.778 44.8391 328.395 41.4312C337.205 36.8874 348.716 38.0234 361.677 44.6824C374.089 51.0673 387.519 62.3877 400.597 77.3902C400.91 77.7427 400.871 78.2911 400.519 78.6045C400.166 78.9179 399.618 78.8787 399.305 78.5262C372.758 48.0511 345.897 34.4196 329.217 42.9981C322.992 46.1709 318.45 52.2033 315.709 60.86C307.134 87.6922 317.001 134.737 340.807 180.723C368.999 235.132 408.663 272.54 435.602 272.54C439.635 272.54 443.394 271.717 446.761 269.955C452.987 266.782 457.529 260.75 460.27 252.093C468.845 225.261 458.978 178.216 435.171 132.23C428.084 118.52 420.096 105.632 411.521 93.9204C411.247 93.5286 411.326 92.9803 411.717 92.7061C412.109 92.4319 412.657 92.5102 412.931 92.9019C421.584 104.692 429.572 117.658 436.737 131.446C460.74 177.785 470.646 225.339 461.914 252.563C459.017 261.65 454.162 267.996 447.544 271.404C443.981 273.284 439.987 274.185 435.641 274.185Z" fill="black"/>
<path d="M387.301 190.339C393.424 187.158 392.246 172.751 384.671 158.159C377.096 143.567 365.993 134.316 359.871 137.497C353.748 140.678 354.926 155.085 362.501 169.677C370.075 184.269 381.179 193.52 387.301 190.339Z" fill="#B9FF66"/>
<path d="M384.622 191.848C377.887 191.848 368.49 183.152 361.716 170.03C356.078 159.14 353.768 147.937 355.843 141.474C356.587 139.202 357.801 137.596 359.484 136.734C366.141 133.326 377.535 142.61 385.444 157.847C391.083 168.737 393.393 179.94 391.318 186.403C390.574 188.675 389.36 190.281 387.676 191.143C386.736 191.613 385.718 191.848 384.622 191.848ZM362.539 137.714C361.716 137.714 360.933 137.87 360.268 138.223C358.975 138.889 358.036 140.142 357.448 141.983C355.53 148.016 357.762 158.748 363.204 169.246C370.409 183.152 381.255 192.514 386.854 189.615C388.146 188.949 389.086 187.696 389.673 185.855C391.592 179.783 389.321 169.09 383.917 158.592C377.574 146.41 368.49 137.714 362.539 137.714Z" fill="#B9FF66"/>
<path d="M429.69 259.574C419.588 259.574 407.45 253.934 394.372 243.005C376.595 228.12 359.132 205.166 345.271 178.373C324.245 137.792 315.591 96.153 323.188 72.2978C325.733 64.307 330.001 58.7447 335.835 55.7285C349.226 48.8736 368.921 56.7861 389.908 77.4292C390.26 77.7818 390.26 78.291 389.908 78.6435C389.556 78.9961 389.047 78.9961 388.694 78.6435C368.255 58.5488 349.265 50.7146 336.618 57.2562C331.214 60.0373 327.26 65.2471 324.832 72.8071C317.353 96.2313 325.968 137.361 346.798 177.589C371.427 225.182 406.079 257.851 429.651 257.851C433.175 257.851 436.424 257.107 439.4 255.618C444.804 252.837 448.758 247.627 451.186 240.067C458.665 216.643 450.051 175.513 429.22 135.285C422.916 123.142 415.868 111.743 408.272 101.441C407.998 101.049 408.076 100.501 408.468 100.227C408.859 99.9526 409.407 100.031 409.681 100.423C417.356 110.842 424.443 122.28 430.786 134.501C451.812 175.082 460.466 216.721 452.87 240.576C450.325 248.567 446.057 254.13 440.223 257.146C437.012 258.752 433.488 259.574 429.69 259.574Z" fill="black"/>
<path d="M195.306 292.517C195.267 292.517 195.228 292.517 195.228 292.517L173.575 290.167C173.458 290.167 173.34 290.128 173.223 290.05C168.759 289.344 163.121 283.704 159.01 275.791C154.624 267.448 153.332 259.3 155.72 255.462L155.76 255.344L167.036 235.367C167.075 235.289 167.115 235.249 167.154 235.21L195.855 205.401C195.894 205.362 195.933 205.323 195.972 205.284L269.506 152.794L316.022 54.9845C316.139 54.7886 316.296 54.632 316.531 54.5536C316.766 54.4753 317.001 54.4753 317.197 54.5928C317.627 54.7886 317.823 55.2979 317.627 55.7288C305.842 80.994 315.161 131.211 340.768 180.645C366.415 230.157 402.164 266.821 429.69 271.874C430.12 271.953 430.434 272.344 430.394 272.814C430.355 273.245 429.964 273.559 429.533 273.598L428.789 273.559C428.75 273.559 428.711 273.559 428.672 273.559L321.934 255.266L236.106 285.976C236.067 285.976 235.989 286.015 235.95 286.015L195.424 292.478C195.385 292.517 195.346 292.517 195.306 292.517ZM174.202 288.522L195.306 290.794L235.636 284.331L321.621 253.581C321.778 253.542 321.895 253.503 322.052 253.542L418.139 269.994C392.179 258.595 361.834 224.947 339.319 181.468C316.962 138.301 306.977 94.4689 312.459 66.775L271.033 153.735C270.954 153.852 270.876 153.97 270.759 154.048L197.108 206.655L168.524 236.307L157.248 256.284C157.248 256.323 157.208 256.363 157.208 256.363C155.172 259.535 156.543 267.37 160.497 275.008C164.374 282.49 169.973 288.13 173.81 288.404C173.967 288.404 174.084 288.444 174.202 288.522Z" fill="black"/>
<path d="M270.365 153.069L316.843 55.3369H316.882C305.331 80.093 313.749 130.271 340.023 181.037C366.374 231.881 402.632 267.8 429.571 272.736L428.827 272.697L322.05 254.404L319.584 253.973C307.171 251.779 290.609 235.641 278.745 212.608C266.567 188.988 264.414 165.447 269.817 154.244L270.365 153.069Z" fill="white"/>
<path d="M429.571 273.598C429.532 273.598 429.571 273.598 429.571 273.598L428.788 273.558C428.749 273.558 428.71 273.558 428.67 273.558L321.894 255.266L319.427 254.835C306.31 252.524 289.669 235.719 277.962 213.039C264.688 187.265 264.023 164.311 269.034 153.891L269.622 152.716L316.099 55.0236C316.217 54.8277 316.373 54.671 316.608 54.5927C316.843 54.5143 317.078 54.5143 317.274 54.6319C317.704 54.8277 317.9 55.3369 317.704 55.7678C305.919 81.0331 315.238 131.25 340.845 180.684C366.492 230.196 402.241 266.86 429.767 271.913C430.197 271.992 430.511 272.383 430.472 272.853C430.354 273.245 430.002 273.598 429.571 273.598ZM312.379 66.7749L271.149 153.46L270.562 154.635C265.589 164.977 267.038 188.087 279.489 212.217C290.961 234.466 307.133 250.918 319.74 253.111L322.207 253.542L418.098 269.994C392.139 258.595 361.793 224.947 339.279 181.467C316.921 138.301 306.937 94.4687 312.379 66.7749Z" fill="black"/>
<path d="M194.131 292.4C194.092 292.4 194.053 292.4 194.053 292.4L173.536 290.206C173.418 290.206 173.301 290.167 173.183 290.089C168.72 289.384 163.081 283.743 158.97 275.831C154.624 267.448 153.331 259.3 155.72 255.462L155.759 255.344L167.036 235.367C167.271 234.936 167.78 234.819 168.21 235.054C168.641 235.289 168.759 235.798 168.524 236.229L157.247 256.284C157.247 256.323 157.208 256.363 157.208 256.363C155.172 259.535 156.542 267.37 160.497 275.008C164.373 282.49 169.972 288.13 173.81 288.404C173.927 288.404 174.084 288.444 174.162 288.522L194.21 290.676C194.679 290.716 195.032 291.146 194.954 291.616C194.914 292.047 194.562 292.4 194.131 292.4Z" fill="black"/>
<path d="M195.501 291.538C188.845 291.068 179.526 281.628 172.752 268.584C165.587 254.756 163.903 240.459 168.289 235.367L156.581 255.736L156.503 255.892C154.271 259.339 155.563 267.291 159.753 275.399C163.864 283.39 169.659 288.953 173.731 289.266L173.614 289.344L195.501 291.538Z" fill="white"/>
<path d="M195.502 292.4C195.463 292.4 195.463 292.4 195.423 292.4C195.267 292.4 195.071 292.36 194.914 292.36L173.536 290.206C173.418 290.206 173.301 290.167 173.183 290.088C168.72 289.383 163.081 283.743 158.97 275.83C154.624 267.448 153.331 259.3 155.72 255.461L155.759 255.344L166.057 237.404C166.449 236.385 166.958 235.484 167.584 234.74C167.858 234.387 168.367 234.348 168.72 234.583C169.072 234.857 169.189 235.327 168.954 235.719L167.506 238.187C165.196 244.415 167.467 256.636 173.418 268.074C179.879 280.57 188.689 289.697 194.993 290.519L195.463 290.559C195.932 290.598 196.285 291.029 196.246 291.499C196.285 292.047 195.932 292.4 195.502 292.4ZM174.162 288.522L189.119 290.049C183.364 286.367 177.02 278.768 171.969 268.975C167.075 259.535 164.647 249.742 165.039 242.692L157.247 256.284C157.247 256.323 157.208 256.362 157.208 256.362C155.172 259.535 156.542 267.369 160.497 275.008C164.373 282.489 169.972 288.13 173.81 288.404C173.927 288.404 174.084 288.443 174.162 288.522Z" fill="black"/>
<path d="M234.343 285.388L236.066 285.035C226.747 286.994 212.025 272.892 201.648 252.876C191.037 232.429 189.04 212.021 196.558 205.988L195.579 206.968L168.366 235.249C163.903 240.263 165.547 254.639 172.752 268.544C179.682 281.941 189.51 291.499 196.206 291.459L234.343 285.388Z" fill="black"/>
<path d="M196.167 292.36C189.041 292.36 179.135 282.764 171.97 268.975C164.687 254.874 162.846 240.146 167.702 234.701L194.405 206.968C194.875 206.341 195.424 205.793 196.011 205.323C196.363 205.048 196.872 205.088 197.185 205.401C197.499 205.753 197.499 206.263 197.185 206.576L195.658 208.182C190.216 215.468 192.918 234.113 202.432 252.484C212.691 272.305 227.022 285.897 235.793 284.252L235.91 284.213C236.38 284.135 236.811 284.409 236.928 284.879C237.006 285.349 236.732 285.78 236.262 285.897C236.223 285.897 236.184 285.897 236.145 285.936L234.54 286.25H234.5L196.363 292.321C196.285 292.321 196.207 292.36 196.167 292.36ZM192.134 211.825L168.994 235.876C164.687 240.733 166.644 254.913 173.536 268.192C180.27 281.197 189.785 290.598 196.167 290.637L229.841 285.27C220.757 282.058 209.559 269.955 200.905 253.307C192.683 237.443 189.511 221.304 192.134 211.825Z" fill="black"/>
<path d="M359.876 137.479C353.729 140.612 354.629 155.145 362.46 169.638C375.577 193.885 386.032 191.025 387.246 190.594C387.285 190.594 387.285 190.634 387.246 190.634L364.731 208.77C358.114 199.486 351.81 189.145 346.015 177.981C340.494 167.288 335.835 156.633 332.154 146.292L359.876 137.479Z" fill="black"/>
<path d="M364.731 209.631C364.692 209.631 364.653 209.631 364.614 209.631C364.379 209.592 364.183 209.475 364.026 209.279C357.253 199.76 350.949 189.341 345.271 178.412C339.829 167.914 335.13 157.221 331.371 146.645C331.293 146.41 331.293 146.174 331.41 145.979C331.528 145.783 331.684 145.626 331.919 145.548L359.641 136.734C360.072 136.617 360.542 136.813 360.698 137.243C360.855 137.674 360.698 138.144 360.307 138.34C358.975 139.006 357.997 140.338 357.409 142.297C355.491 148.446 357.84 159.336 363.282 169.325C376.086 192.984 385.953 190.281 387.011 189.889C387.402 189.733 387.872 189.928 388.068 190.281C388.264 190.634 388.185 191.143 387.872 191.417L365.279 209.436C365.123 209.553 364.927 209.631 364.731 209.631ZM333.29 146.84C337.009 157.064 341.551 167.405 346.798 177.59C352.28 188.166 358.388 198.233 364.927 207.516L384.465 191.77C380.002 191.574 371.583 188.244 361.716 170.03C356 159.493 353.65 148.368 355.726 141.67C356 140.808 356.313 140.064 356.704 139.359L333.29 146.84Z" fill="black"/>
<path d="M475.721 81.5974C493.622 72.1937 500.545 50.1159 491.185 32.2852C481.825 14.4545 459.727 7.62311 441.827 17.0268C423.927 26.4305 417.004 48.5083 426.363 66.339C435.723 84.1697 457.821 91.0011 475.721 81.5974Z" fill="black"/>
<path d="M442.102 41.2352C443.825 38.8849 446.37 37.4356 449.268 37.1223C451.46 36.8872 453.497 37.3573 455.415 38.5324C456.394 39.12 457.255 39.8642 458.078 40.7652C458.665 39.7075 459.37 38.7674 460.192 37.984C461.797 36.4172 463.716 35.5162 465.87 35.2812C468.767 34.9678 471.586 35.8296 473.779 37.749C475.932 39.6292 477.303 42.3712 477.655 45.4657C478.008 48.6385 477.146 51.6939 474.954 55.0626C472.996 58.0787 470.02 61.2124 466.574 64.8945C465.4 66.1479 464.068 67.5581 462.698 69.0466C462.346 69.4383 461.837 69.7125 461.288 69.7517C460.74 69.83 460.231 69.6733 459.761 69.36C458.078 68.1848 456.472 67.0881 455.063 66.1479C450.912 63.3276 447.31 60.899 444.726 58.3921C441.828 55.611 440.34 52.7906 439.988 49.6178C439.675 46.5233 440.419 43.5463 442.102 41.2352Z" fill="white"/>
<path d="M577.27 83.5925C590.375 70.4829 590.375 49.2281 577.27 36.1185C564.166 23.0089 542.92 23.0089 529.815 36.1185C516.711 49.228 516.711 70.4829 529.815 83.5925C542.92 96.7021 564.166 96.7021 577.27 83.5925Z" fill="#B9FF66"/>
<path d="M553.537 94.2732C534.585 94.2732 519.119 78.8399 519.119 59.8419C519.119 40.8832 534.546 25.4106 553.537 25.4106C572.527 25.4106 587.954 40.844 587.954 59.8419C587.954 78.8007 572.527 94.2732 553.537 94.2732ZM553.537 27.1342C535.525 27.1342 520.842 41.7841 520.842 59.8419C520.842 77.8606 535.486 92.5497 553.537 92.5497C571.548 92.5497 586.231 77.8998 586.231 59.8419C586.231 41.8233 571.587 27.1342 553.537 27.1342Z" fill="#B9FF66"/>
<path d="M562.62 63.1713C560.741 63.1713 559.096 64.0723 558 65.4824L546.684 61.0561C546.684 60.8994 546.723 60.7819 546.723 60.6252C546.723 60.351 546.684 60.0768 546.645 59.8026L558.235 54.4362C559.292 55.6505 560.858 56.4339 562.62 56.4731C565.831 56.4731 568.493 53.8486 568.493 50.5974C568.493 47.3462 565.87 44.6826 562.62 44.6826C559.409 44.6826 556.747 47.3071 556.747 50.5583C556.747 50.8325 556.786 51.1067 556.825 51.3809L545.235 56.7473C544.178 55.533 542.612 54.7496 540.85 54.7104C537.639 54.7104 534.977 57.3348 534.977 60.586C534.977 63.8372 537.6 66.5009 540.85 66.5009C542.729 66.5009 544.374 65.5999 545.47 64.1898L556.786 68.6161C556.786 68.7728 556.747 68.8903 556.747 69.047C556.747 72.2982 559.37 74.9618 562.62 74.9618C565.831 74.9618 568.493 72.3373 568.493 69.0861C568.454 65.8349 565.831 63.2105 562.62 63.1713Z" fill="black"/>
<path d="M563.065 189.993C578.431 179.322 582.292 158.283 571.688 142.999C561.084 127.715 540.03 123.975 524.663 134.645C509.297 145.315 505.436 166.355 516.04 181.639C526.645 196.923 547.698 200.663 563.065 189.993Z" fill="black"/>
<path d="M535.409 178.373L530.476 151.619C530.241 150.248 531.494 149.112 532.825 149.465L561.996 157.73C563.484 158.161 563.836 160.08 562.622 161.02L538.346 179.509C537.289 180.371 535.683 179.783 535.409 178.373Z" fill="white"/>
<path d="M543.534 299.582C562.51 290.34 570.45 267.553 561.269 248.686C552.088 229.819 529.262 222.016 510.285 231.258C491.309 240.499 483.369 263.286 492.55 282.153C501.731 301.02 524.557 308.823 543.534 299.582Z" fill="#B9FF66"/>
<path d="M526.716 304.347C522.644 304.347 518.493 303.72 514.46 302.349C504.593 299.059 496.605 292.165 491.985 282.842C487.365 273.559 486.66 263.022 489.988 253.151C496.88 232.821 519.041 221.735 539.441 228.512C549.308 231.802 557.296 238.696 561.916 248.019C566.537 257.303 567.241 267.84 563.913 277.711C558.353 294.006 543.044 304.347 526.716 304.347ZM527.107 228.277C511.484 228.277 496.84 238.148 491.554 253.738C488.383 263.178 489.048 273.245 493.473 282.098C497.898 290.99 505.533 297.61 514.969 300.743C534.469 307.206 555.651 296.63 562.23 277.202C565.401 267.761 564.736 257.694 560.311 248.842C555.886 239.95 548.251 233.33 538.815 230.196C534.938 228.865 530.984 228.277 527.107 228.277Z" fill="black"/>
<path d="M546.373 259.261C545.982 268.78 529.889 291.029 526.052 296.239C525.66 296.787 524.838 296.748 524.485 296.16C522.058 292.243 514.031 279.082 509.841 268.427C508.158 264.197 507.1 260.358 507.218 257.655C507.649 246.844 516.772 238.422 527.579 238.853C538.385 239.362 546.804 248.45 546.373 259.261Z" fill="black"/>
<path d="M533.128 264.827C536.63 261.324 536.63 255.644 533.128 252.141C529.627 248.638 523.949 248.638 520.448 252.141C516.946 255.644 516.946 261.324 520.448 264.827C523.949 268.33 529.627 268.33 533.128 264.827Z" fill="#B9FF66"/>
<defs>
<clipPath id="clip0_332_1228">
<rect width="36" height="36" fill="white" transform="translate(293.535 427)"/>
</clipPath>
<clipPath id="clip1_332_1228">
<rect width="70.3259" height="70.3259" fill="white" transform="translate(108.264 313) rotate(45)"/>
</clipPath>
</defs>
</svg>
